<svg width="239" height="26" viewBox="0 0 239 26" fill="none" xmlns="http://www.w3.org/2000/svg">
<path d="M0 23.7305V1.8457C0 1.36523 0.164062 0.960938 0.492188 0.632812C0.820312 0.304687 1.21289 0.140625 1.66992 0.140625H4.97461C5.43164 0.140625 5.81836 0.304687 6.13477 0.632812C6.46289 0.960938 6.62695 1.36523 6.62695 1.8457V20.373H21.9375C22.3945 20.373 22.7812 20.5371 23.0977 20.8652C23.4258 21.1934 23.5898 21.5859 23.5898 22.043V23.6953C23.5898 24.1523 23.4258 24.5449 23.0977 24.873C22.7812 25.1895 22.3945 25.3477 21.9375 25.3477H1.66992C1.21289 25.3477 0.820312 25.1953 0.492188 24.8906C0.164062 24.5742 0 24.1875 0 23.7305ZM26.4727 23.7305V1.81055C26.4727 1.35352 26.6367 0.960938 26.9648 0.632812C27.293 0.304687 27.6855 0.140625 28.1426 0.140625H31.4121C31.8926 0.140625 32.291 0.304687 32.6074 0.632812C32.9355 0.960938 33.0996 1.35352 33.0996 1.81055V23.6953C33.0996 24.1523 32.9297 24.5449 32.5898 24.873C32.2617 25.1895 31.8691 25.3477 31.4121 25.3477H28.1426C27.6855 25.3477 27.293 25.1953 26.9648 24.8906C26.6367 24.5742 26.4727 24.1875 26.4727 23.7305ZM48.7793 25.4883C44.8887 25.4883 41.9004 24.4395 39.8145 22.3418C37.7402 20.2441 36.7031 17.0391 36.7031 12.7266C36.7031 8.40234 37.7871 5.20312 39.9551 3.12891C42.1348 1.04297 45.3984 0 49.7461 0H53.666C56.2559 0 58.5879 0.621094 60.6621 1.86328C62.748 3.09375 63.791 4.63477 63.791 6.48633C63.791 7.17773 63.5859 7.67578 63.1758 7.98047C62.7656 8.27344 62.3672 8.41992 61.9805 8.41992H59.8887C58.8809 8.41992 58.0781 7.8457 57.4805 6.69727C56.8828 5.54883 55.4062 4.97461 53.0508 4.97461H49.9219C47.3555 4.97461 45.6152 5.52539 44.7012 6.62695C43.7871 7.72852 43.3301 9.75586 43.3301 12.709C43.3301 15.6621 43.7402 17.707 44.5605 18.8438C45.3809 19.9688 46.8457 20.5312 48.9551 20.5312H52.5586C54.4453 20.5312 55.793 20.1738 56.6016 19.459C57.4102 18.7324 57.8262 17.6953 57.8496 16.3477H53.877C53.4199 16.3477 53.0273 16.1895 52.6992 15.873C52.3828 15.5449 52.2246 15.1523 52.2246 14.6953V13.3242C52.2246 12.8672 52.3828 12.4805 52.6992 12.1641C53.0273 11.8359 53.4199 11.6719 53.877 11.6719H62.7012C63.1582 11.6719 63.5449 11.8359 63.8613 12.1641C64.1895 12.4805 64.3535 12.8672 64.3535 13.3242V15.2754C64.3535 18.5566 63.3691 21.082 61.4004 22.8516C59.4316 24.6094 56.543 25.4883 52.7344 25.4883H48.7793ZM67.957 23.6953V1.81055C67.957 1.35352 68.1211 0.960938 68.4492 0.632812C68.7773 0.304687 69.1816 0.140625 69.6621 0.140625H72.9316C73.3887 0.140625 73.7754 0.304687 74.0918 0.632812C74.4199 0.960938 74.584 1.35352 74.584 1.81055V9.7207H86.6777V1.81055C86.6777 1.35352 86.8418 0.960938 87.1699 0.632812C87.498 0.304687 87.8906 0.140625 88.3477 0.140625H91.6172C92.0977 0.140625 92.4961 0.304687 92.8125 0.632812C93.1406 0.960938 93.3047 1.35352 93.3047 1.81055V23.6953C93.3047 24.1523 93.1348 24.5449 92.7949 24.873C92.4668 25.1895 92.0742 25.3477 91.6172 25.3477H88.3477C87.8906 25.3477 87.498 25.1953 87.1699 24.8906C86.8418 24.5742 86.6777 24.1875 86.6777 23.7305V14.6953H74.584V23.7305C74.584 24.1875 74.4199 24.5742 74.0918 24.8906C73.7754 25.1953 73.3887 25.3477 72.9316 25.3477H69.6621C69.2051 25.3477 68.8066 25.1895 68.4668 24.873C68.127 24.5449 67.957 24.1523 67.957 23.6953ZM96.2051 3.46289V1.81055C96.2051 1.33008 96.3633 0.931641 96.6797 0.615234C96.9961 0.298828 97.3945 0.140625 97.875 0.140625H120.182C120.662 0.140625 121.061 0.298828 121.377 0.615234C121.693 0.931641 121.852 1.33008 121.852 1.81055V3.46289C121.852 3.94336 121.693 4.3418 121.377 4.6582C121.061 4.96289 120.662 5.11523 120.182 5.11523H112.342V23.7305C112.342 24.1875 112.178 24.5742 111.85 24.8906C111.533 25.1953 111.146 25.3477 110.689 25.3477H107.367C106.91 25.3477 106.518 25.1953 106.189 24.8906C105.873 24.5742 105.715 24.1875 105.715 23.7305V5.11523H97.875C97.3945 5.11523 96.9961 4.96289 96.6797 4.6582C96.3633 4.3418 96.2051 3.94336 96.2051 3.46289Z" fill="#F8EEE3"/>
<path d="M124.734 23.7305V1.8457C124.734 1.36523 124.898 0.960938 125.227 0.632812C125.555 0.304687 125.947 0.140625 126.404 0.140625H129.709C130.166 0.140625 130.553 0.304687 130.869 0.632812C131.197 0.960938 131.361 1.36523 131.361 1.8457V20.373H146.672C147.129 20.373 147.516 20.5371 147.832 20.8652C148.16 21.1934 148.324 21.5859 148.324 22.043V23.6953C148.324 24.1523 148.16 24.5449 147.832 24.873C147.516 25.1895 147.129 25.3477 146.672 25.3477H126.404C125.947 25.3477 125.555 25.1953 125.227 24.8906C124.898 24.5742 124.734 24.1875 124.734 23.7305ZM149.133 23.7305L153.545 6.99609C154.74 2.4375 158.631 0.152344 165.217 0.140625H174.691C175.125 0.140625 175.482 0.304687 175.764 0.632812C176.057 0.960938 176.203 1.3418 176.203 1.77539V23.7305C176.203 24.1875 176.039 24.5742 175.711 24.8906C175.383 25.1953 174.99 25.3477 174.533 25.3477H171.229C170.748 25.3477 170.35 25.1953 170.033 24.8906C169.729 24.5742 169.576 24.1758 169.576 23.6953V19.2656H157.078L155.9 23.6953C155.783 24.1758 155.52 24.5742 155.109 24.8906C154.699 25.1953 154.266 25.3477 153.809 25.3477H150.346C149.889 25.3477 149.561 25.2188 149.361 24.9609C149.162 24.6914 149.062 24.457 149.062 24.2578C149.074 24.0586 149.098 23.8828 149.133 23.7305ZM158.379 14.291H169.576V5.11523H164.566C163.441 5.11523 162.457 5.4375 161.613 6.08203C160.781 6.71484 160.219 7.57031 159.926 8.64844L158.379 14.291ZM181.23 23.6953V1.81055C181.23 1.35352 181.389 0.960938 181.705 0.632812C182.021 0.304687 182.408 0.140625 182.865 0.140625H188.033C188.443 0.140625 188.877 0.304687 189.334 0.632812C189.791 0.960938 190.166 1.35352 190.459 1.81055L201.076 18.1406V1.77539C201.076 1.31836 201.234 0.931641 201.551 0.615234C201.879 0.298828 202.271 0.140625 202.729 0.140625H205.752C206.209 0.140625 206.596 0.298828 206.912 0.615234C207.24 0.931641 207.404 1.33008 207.404 1.81055V23.6953C207.404 24.1523 207.24 24.5449 206.912 24.873C206.596 25.1895 206.209 25.3477 205.752 25.3477H199.916C199.459 25.3477 198.99 25.1895 198.51 24.873C198.029 24.5449 197.648 24.1523 197.367 23.6953L187.646 8.61328V23.6953C187.646 24.1523 187.482 24.5449 187.154 24.873C186.838 25.1895 186.451 25.3477 185.994 25.3477H182.9C182.443 25.3477 182.051 25.1895 181.723 24.873C181.395 24.5449 181.23 24.1523 181.23 23.6953ZM212.449 23.7305V1.8457C212.449 1.36523 212.613 0.960938 212.941 0.632812C213.27 0.304687 213.662 0.140625 214.119 0.140625H223.945C229.031 0.140625 232.729 1.16016 235.037 3.19922C237.357 5.22656 238.518 8.41406 238.518 12.7617C238.518 17.0977 237.357 20.2793 235.037 22.3066C232.729 24.334 229.031 25.3477 223.945 25.3477H214.119C213.662 25.3477 213.27 25.1953 212.941 24.8906C212.613 24.5742 212.449 24.1875 212.449 23.7305ZM219.076 20.373H223.752C226.904 20.373 229.049 19.7988 230.186 18.6504C231.322 17.502 231.891 15.5391 231.891 12.7617C231.891 9.97266 231.322 8.00391 230.186 6.85547C229.049 5.69531 226.904 5.11523 223.752 5.11523H219.076V20.373Z" fill="#CF985C"/>
</svg>
