<svg width="25" height="19" viewBox="0 0 25 19" fill="none" xmlns="http://www.w3.org/2000/svg">
<path d="M2.99805 0C1.34277 0 0 1.36068 0 3.03802C0 3.08255 -7.45058e-08 3.12214 0.00488274 3.16667H0V15.8333C0 17.5799 1.40137 19 3.125 19H21.875C23.5986 19 25 17.5799 25 15.8333V3.16667H24.9951C24.9951 3.12214 25 3.08255 25 3.03802C25 1.36068 23.6572 0 22.002 0H2.99805ZM22.6562 6.34818V15.8333C22.6562 16.2688 22.3047 16.625 21.875 16.625H3.125C2.69531 16.625 2.34375 16.2688 2.34375 15.8333V6.34818L9.90234 12.157C11.4355 13.3396 13.5596 13.3396 15.0977 12.157L22.6562 6.34818ZM2.34375 3.03802C2.34375 2.67187 2.63672 2.375 2.99805 2.375H22.002C22.3633 2.375 22.6562 2.67187 22.6562 3.03802C22.6562 3.24583 22.5586 3.44375 22.3975 3.56745L13.6816 10.2669C12.9834 10.8013 12.0166 10.8013 11.3184 10.2669L2.60254 3.56745C2.44141 3.44375 2.34375 3.24583 2.34375 3.03802Z" fill="#3B2105"/>
</svg>
