<svg width="27" height="25" viewBox="0 0 27 25" fill="none" xmlns="http://www.w3.org/2000/svg">
<path d="M9.33573 0.090992C9.11948 0.142921 8.73972 0.275106 8.49183 0.383688C8.1279 0.544201 7.94857 0.666945 7.54244 1.03518C7.13104 1.39869 6.99391 1.5592 6.81458 1.88494C6.48757 2.47506 6.38208 2.90466 6.38208 3.66473V4.29261H10.6438C14.9846 4.29261 15.781 4.31622 16.4297 4.46257C18.5026 4.9205 20.0321 6.35094 20.549 8.3054C20.6334 8.62642 20.644 9.0277 20.6545 12.6723L20.6703 16.685L21.6408 17.5443C22.6851 18.4696 22.7379 18.4979 23.2231 18.4412C23.3919 18.4223 23.4921 18.3704 23.6398 18.2241L23.8402 18.0352V16.1044V14.1688L24.278 14.046C24.8898 13.8761 25.3276 13.6306 25.8445 13.168C26.3508 12.7195 26.6251 12.3324 26.8361 11.7753L26.9785 11.3976L26.9943 7.22431C27.0101 2.48922 27.026 2.70166 26.5724 1.88494C26.393 1.5592 26.2559 1.39869 25.8445 1.03518C25.4384 0.666945 25.259 0.544201 24.8951 0.383688C24.6472 0.275106 24.2569 0.142921 24.0301 0.090992C23.624 0.00129318 23.4288 -0.00342751 16.6724 0.00129318C9.99502 0.00129318 9.71548 0.00601387 9.33573 0.090992Z" fill="#3B2105"/>
<path d="M3.00639 5.80334C1.58758 6.1338 0.45887 7.13464 0.100213 8.3904C0.00527437 8.72559 0 8.94747 0 12.7903C0 16.6331 0.00527437 16.855 0.100213 17.1902C0.443047 18.394 1.49265 19.3666 2.83761 19.7301L3.21736 19.8339V21.7884V23.7476L3.41779 23.9364C3.56547 24.0828 3.66569 24.1347 3.83446 24.1536C4.3408 24.2149 4.23532 24.2905 6.78284 21.9961L9.14048 19.8717H12.4211C16.1396 19.8717 16.1079 19.8764 16.9835 19.4846C17.3474 19.3241 17.5267 19.2013 17.9328 18.8331C18.3442 18.4696 18.4814 18.3091 18.6607 17.9833C19.109 17.176 19.0932 17.3743 19.0932 12.7903C19.0932 8.20629 19.109 8.40457 18.6607 7.59729C18.4814 7.27154 18.3442 7.11103 17.9328 6.74752C17.5267 6.37929 17.3474 6.25654 16.9835 6.09603C16.0604 5.68531 16.514 5.70892 9.55188 5.71364C3.64459 5.71364 3.38614 5.71836 3.00639 5.80334ZM5.40623 11.5345C5.79125 11.6951 5.98641 11.8603 6.16574 12.186C6.55076 12.8753 6.2554 13.6684 5.47479 14.013C4.45684 14.471 3.27011 13.8147 3.27011 12.7903C3.27011 12.2474 3.57602 11.8131 4.12456 11.5676C4.5465 11.3787 5.00537 11.3646 5.40623 11.5345ZM10.1532 11.5345C10.5382 11.6951 10.7333 11.8603 10.9127 12.186C11.2977 12.8753 11.0023 13.6684 10.2217 14.013C9.20377 14.471 8.01704 13.8147 8.01704 12.7903C8.01704 12.2474 8.32295 11.8131 8.87149 11.5676C9.29344 11.3787 9.75231 11.3646 10.1532 11.5345ZM14.9528 11.5345C15.3379 11.6951 15.533 11.8603 15.7123 12.186C16.0974 12.8753 15.802 13.6684 15.0214 14.013C14.0034 14.471 12.8167 13.8147 12.8167 12.7903C12.8167 12.2474 13.1226 11.8131 13.6712 11.5676C14.0931 11.3787 14.552 11.3646 14.9528 11.5345Z" fill="#3B2105"/>
</svg>
